<?xml version="1.0" standalone="no"?><!DOCTYPE svg PUBLIC "-//W3C//DTD SVG 1.1//EN" "http://www.w3.org/Graphics/SVG/1.1/DTD/svg11.dtd"><svg class="icon" width="200px" height="200.00px" viewBox="0 0 1024 1024" version="1.1" xmlns="http://www.w3.org/2000/svg"><path d="M460 111.398c0-6.295-5.103-11.398-11.398-11.398H125.398c-6.295 0-11.398 5.103-11.398 11.398v334.205c0 6.295 5.103 11.398 11.398 11.398h323.205c6.295 0 11.398-5.103 11.398-11.398V111.398z" fill="#8BF268" /><path d="M496 111.428C496 85.234 474.766 64 448.572 64H125.428C99.234 64 78 85.234 78 111.428v334.144C78 471.766 99.234 493 125.428 493h323.144C474.766 493 496 471.766 496 445.572V111.428z m-36 334.174c0 6.295-5.103 11.398-11.398 11.398H125.398c-6.295 0-11.398-5.103-11.398-11.398V111.398c0-6.295 5.103-11.398 11.398-11.398h323.205c6.295 0 11.398 5.103 11.398 11.398v334.204z"  /><path d="M908 111.398c0-6.295-5.103-11.398-11.398-11.398H573.398c-6.295 0-11.398 5.103-11.398 11.398v334.205c0 6.295 5.103 11.398 11.398 11.398h323.205c6.295 0 11.398-5.103 11.398-11.398V111.398z" fill="#8BF268" /><path d="M944 111.428C944 85.234 922.766 64 896.572 64H573.428C547.234 64 526 85.234 526 111.428v334.144C526 471.766 547.234 493 573.428 493h323.144C922.766 493 944 471.766 944 445.572V111.428z m-36 334.174c0 6.295-5.103 11.398-11.398 11.398H573.398c-6.295 0-11.398-5.103-11.398-11.398V111.398c0-6.295 5.103-11.398 11.398-11.398h323.205c6.295 0 11.398 5.103 11.398 11.398v334.204z"  /><path d="M460 575.398c0-6.295-5.103-11.398-11.398-11.398H125.398c-6.295 0-11.398 5.103-11.398 11.398v334.205c0 6.295 5.103 11.398 11.398 11.398h323.205c6.295 0 11.398-5.103 11.398-11.398V575.398z" fill="#8BF268" /><path d="M496 575.428C496 549.234 474.766 528 448.572 528H125.428C99.234 528 78 549.234 78 575.428v334.144C78 935.766 99.234 957 125.428 957h323.144C474.766 957 496 935.766 496 909.572V575.428z m-36 334.175c0 6.295-5.103 11.397-11.398 11.397H125.398c-6.295 0-11.398-5.103-11.398-11.397V575.397c0-6.295 5.103-11.397 11.398-11.397h323.205c6.295 0 11.398 5.103 11.398 11.397v334.206z"  /><path d="M907 576.398c0-6.295-5.103-11.398-11.398-11.398H572.398c-6.295 0-11.398 5.103-11.398 11.398v334.205c0 6.295 5.103 11.398 11.398 11.398h323.205c6.295 0 11.398-5.103 11.398-11.398V576.398z" fill="#2FBC3C" /><path d="M943 576.428C943 550.234 921.766 529 895.572 529H572.428C546.234 529 525 550.234 525 576.428v334.144C525 936.766 546.234 958 572.428 958h323.144C921.766 958 943 936.766 943 910.572V576.428z m-36 334.175c0 6.295-5.103 11.397-11.398 11.397H572.398c-6.295 0-11.398-5.103-11.398-11.397V576.397c0-6.295 5.103-11.397 11.398-11.397h323.205c6.295 0 11.398 5.103 11.398 11.397v334.206z"  /></svg>