<?xml version="1.0" standalone="no"?><!DOCTYPE svg PUBLIC "-//W3C//DTD SVG 1.1//EN" "http://www.w3.org/Graphics/SVG/1.1/DTD/svg11.dtd"><svg class="icon" width="200px" height="159.25px" viewBox="0 0 1286 1024" version="1.1" xmlns="http://www.w3.org/2000/svg"><path d="M272.69819165 383.88215756m20.47702714 0l620.01384063 0q20.47702713 0 20.47702712 20.47702714l0 432.21794867q0 20.47702713-20.47702712 20.47702715l-620.01384063 0q-20.47702713 0-20.47702714-20.47702715l0-432.21794867q0-20.47702713 20.47702714-20.47702714Z" fill="#FF9C15" /><path d="M873.89651889 141.21142578" fill="#FFFFFF" /><path d="M365.6082113 549.31498094m14.95361859 0l61.07183434 0q14.95361859 0 14.95361859 14.95361859l0 61.07183434q0 14.95361859-14.95361859 14.9536186l-61.07183434 0q-14.95361859 0-14.95361859-14.95361859l0-61.07183435q0-14.95361859 14.95361859-14.95361859Z" fill="#FFFFFF" /><path d="M441.63366423 645.90727295H380.56182989a20.56683834 20.56683834 0 0 1-20.56683908-20.56683908v-61.07183434a20.61174432 20.61174432 0 0 1 20.56683908-20.56683908h61.07183434a20.61174432 20.61174432 0 0 1 20.56683835 20.56683908v61.07183434a20.56683834 20.56683834 0 0 1-20.56683835 20.56683908zM380.56182989 554.97310669a9.34039809 9.34039809 0 0 0-9.34039882 9.29549284v61.07183434a9.34039809 9.34039809 0 0 0 9.34039882 9.34039883h61.07183434a9.34039809 9.34039809 0 0 0 9.43021005-9.34039883v-61.07183434a9.29549286 9.29549286 0 0 0-9.29549286-9.29549284z" fill="#FFFFFF" /><path d="M630.4623892 537.14551962m14.95361787 0l151.96109536 0q14.95361859 0 14.95361859 14.95361858l0 251.02320356q0 14.95361859-14.95361859 14.95361787l-151.96109536 0q-14.95361859 0-14.95361787-14.95361787l0-251.02320356q0-14.95361859 14.95361787-14.95361858Z" fill="#FFFFFF" /><path d="M797.37710243 823.77899133h-151.96109536a20.61174432 20.61174432 0 0 1-20.61174361-20.56683835V552.0991382a20.61174432 20.61174432 0 0 1 20.61174361-20.56683834h151.96109536a20.61174432 20.61174432 0 0 1 20.56683835 20.56683834v251.02320356a20.61174432 20.61174432 0 0 1-20.56683835 20.65664958z m-151.96109536-280.97534598a9.34039809 9.34039809 0 0 0-9.3403981 9.29549285v251.02320355a9.34039809 9.34039809 0 0 0 9.3403981 9.29549214h151.96109536a9.29549286 9.29549286 0 0 0 9.29549213-9.29549214V552.0991382a9.29549286 9.29549286 0 0 0-9.29549213-9.29549285z" fill="#FFFFFF" /><path d="M961.05860085 199.58891481H230.62149386L147.72545901 393.53689602c-17.46834074 42.97481289 1.52679581 89.22774656 41.08877146 105.07948097a78.5401758 78.5401758 0 0 0 97.71493552-36.95744154 77.1031912 77.1031912 0 0 0 61.88013896 31.43403301c31.43403228 0 67.08920714-19.2196657 79.16885652-46.65708597 12.07964938 27.43741956 48.40841021 46.65708525 79.84244249 46.65708597 31.43403228 0 65.60731656-19.2196657 77.73187264-46.65708597C597.23212599 473.87330276 630.68691762 493.09296846 662.12095061 493.09296846a77.55224875 77.55224875 0 0 0 67.80769908-40.41518477 77.46243754 77.46243754 0 0 0 67.7627931 40.41518477c31.43403228 0 70.27751597-19.2196657 82.35716535-46.65708597 15.85173368 39.56197563 72.38808653 63.58655722 111.95006218 47.73482424a77.68696667 77.68696667 0 0 0 43.01971887-100.72362193z" fill="#FBCB3B" /></svg>